<svg width="27" height="27" viewBox="0 0 27 27" fill="none" xmlns="http://www.w3.org/2000/svg">
<path fill-rule="evenodd" clip-rule="evenodd" d="M18.247 26.7248H3.87398C1.74048 26.7248 0 24.9844 0 22.8509V15.6643C2.24578 17.5171 5.05301 18.64 8.19711 18.64C8.3094 18.64 8.47783 18.64 8.59012 18.64H18.247V26.7248ZM26.9494 18.6962V22.8509C26.9494 24.9844 25.2089 26.7248 23.0754 26.7248H22.2333V18.6962H26.9494ZM20.0998 0H23.0193C25.1528 0 26.8933 1.74048 26.8933 3.87398V14.5415H17.5171C19.7629 12.1272 21.1665 8.87085 21.1665 5.22145C21.1665 3.36868 20.7735 1.62819 20.0998 0ZM3.87398 0H14.6537C15.8328 1.45976 16.5065 3.31253 16.5065 5.33374C16.5065 10.0499 12.7448 13.8677 8.14097 13.8677C4.1547 13.8677 0.842169 11.0605 0 7.24265V3.87398C0 3.53711 0.0561446 3.20024 0.112289 2.91952C0.168434 2.80723 0.224578 2.69494 0.224578 2.52651C0.786024 1.06675 2.24578 0 3.87398 0Z" fill="#D40000"/>
</svg>
