<svg width="141" height="21" viewBox="0 0 141 21" fill="none" xmlns="http://www.w3.org/2000/svg">
<g clip-path="url(#clip0)">
<path d="M31.0084 16.2677C29.5798 16.2677 28.4874 15.7215 27.7311 14.587C26.9748 13.4526 26.5546 12.108 26.5546 10.5114C26.5546 8.87273 26.9328 7.52819 27.7311 6.47777C28.5294 5.38533 29.6219 4.83911 31.0924 4.83911C32.563 4.83911 33.6555 5.42735 34.4118 6.5618C35.1681 7.73827 35.5462 9.04079 35.5462 10.5114C35.5462 12.108 35.1681 13.4946 34.3698 14.587C33.6134 15.7215 32.479 16.2677 31.0084 16.2677ZM31.0924 6.98197C29.7899 6.98197 29.1597 8.15844 29.1597 10.5534C29.1597 12.9484 29.7899 14.1668 31.0924 14.1668C32.3529 14.1668 32.9832 12.9904 32.9832 10.5954C32.9412 8.15844 32.3109 6.98197 31.0924 6.98197Z" fill="#4F4F4F"/>
<path d="M39.6639 13.9148H43.8655V16.0996H37.1429V5.0072H39.6639V13.9148Z" fill="#4F4F4F"/>
<path d="M47.563 5.0072V16.0996H45.084V5.0072H47.563Z" fill="#4F4F4F"/>
<path d="M57.521 5.0072L54.3277 16.0996H51.6807L48.5294 5.0072H51.1765L53.2773 12.9484L55.4622 5.0072H57.521Z" fill="#4F4F4F"/>
<path d="M66.0084 7.15006H61.0084V9.41897H64.958V11.5198H61.0084V13.9568H66.0084V16.1417H58.4874V5.0072H66.0084V7.15006Z" fill="#4F4F4F"/>
<path d="M69.958 5.0072V16.0996H67.479V5.0072H69.958Z" fill="#4F4F4F"/>
<path d="M74.5378 11.7299V16.1417H72.0588V5.0072H76.6807C77.521 5.0072 78.2353 5.09124 78.7395 5.30132C79.2437 5.5114 79.7059 5.88956 80.042 6.43577C80.3782 6.98199 80.5462 7.61224 80.5462 8.28451C80.5462 9.62905 79.916 10.5534 78.6975 11.1417L80.6303 16.0576H77.8992L76.2605 11.6459H74.5378V11.7299ZM74.5378 6.98199V9.79712H76.0504C76.5546 9.79712 76.8908 9.7551 77.1429 9.67107C77.395 9.58703 77.563 9.41897 77.7311 9.16687C77.8992 8.91477 77.9832 8.62065 77.9832 8.28451C77.9832 7.9904 77.8992 7.69628 77.7311 7.44418C77.563 7.19208 77.353 7.06603 77.1429 6.98199C76.9328 6.93998 76.5546 6.89796 75.9664 6.89796H74.5378V6.98199Z" fill="#4F4F4F"/>
<path d="M87.6471 5.0072L90.9244 16.0996H88.2773L87.6471 13.8307H84.2437L83.5714 16.0996H81.3866L84.7479 5.0072H87.6471ZM84.7899 11.7719H87.0168L85.9244 7.86435L84.7899 11.7719Z" fill="#4F4F4F"/>
<path d="M102.689 5.0072V7.19208H100.084V16.0996H97.5631V7.23409H94.958V5.04922H102.689V5.0072Z" fill="#4F4F4F"/>
<path d="M106.218 11.7299V16.1417H103.74V5.0072H108.361C109.202 5.0072 109.916 5.09124 110.42 5.30132C110.924 5.5114 111.387 5.88956 111.723 6.43577C112.059 6.98199 112.227 7.61224 112.227 8.28451C112.227 9.62905 111.597 10.5534 110.378 11.1417L112.311 16.0576H109.58L107.983 11.7299H106.218ZM106.218 6.98199V9.79712H107.731C108.235 9.79712 108.571 9.7551 108.824 9.67107C109.076 9.58703 109.244 9.41897 109.412 9.16687C109.58 8.91477 109.664 8.62065 109.664 8.28451C109.664 7.9904 109.58 7.69628 109.412 7.44418C109.244 7.19208 109.034 7.06603 108.824 6.98199C108.613 6.93998 108.235 6.89796 107.647 6.89796H106.218V6.98199Z" fill="#4F4F4F"/>
<path d="M122.269 5.0072V11.898C122.269 13.0324 122.143 13.8307 121.891 14.377C121.639 14.9232 121.218 15.3854 120.546 15.7215C119.874 16.0576 119.118 16.2677 118.067 16.2677C117.017 16.2677 116.26 16.0996 115.63 15.8055C115.042 15.5114 114.58 15.0492 114.286 14.461C113.992 13.8727 113.824 13.0324 113.824 11.94V5.0072H116.513V11.898C116.513 12.4862 116.555 12.9484 116.639 13.2005C116.723 13.4946 116.933 13.7047 117.227 13.8727C117.521 14.0408 117.857 14.1248 118.277 14.1248C118.739 14.1248 119.118 14.0408 119.412 13.8727C119.706 13.7047 119.916 13.4946 120 13.2425C120.084 12.9904 120.126 12.5282 120.126 11.898V5.0072H122.269Z" fill="#4F4F4F"/>
<path d="M131.513 7.44415L129.412 8.20046C129.118 7.3181 128.529 6.89793 127.605 6.89793C126.639 6.89793 126.134 7.23407 126.134 7.90634C126.134 8.15844 126.218 8.41054 126.429 8.57861C126.597 8.74668 127.017 8.91474 127.647 9.04079C128.739 9.25088 129.496 9.50298 130 9.71306C130.504 9.96516 130.924 10.3013 131.26 10.8475C131.597 11.3517 131.765 11.94 131.765 12.5702C131.765 13.5786 131.387 14.4189 130.672 15.1752C129.958 15.8895 128.866 16.2677 127.395 16.2677C126.303 16.2677 125.378 16.0156 124.622 15.5114C123.866 15.0072 123.361 14.2089 123.109 13.2005L125.378 12.6542C125.63 13.7047 126.345 14.2089 127.521 14.2089C128.067 14.2089 128.487 14.0828 128.781 13.8727C129.076 13.6626 129.202 13.3685 129.202 13.0324C129.202 12.6963 129.076 12.4442 128.824 12.2761C128.571 12.108 128.067 11.94 127.353 11.7719C126.008 11.4778 125.042 11.0996 124.496 10.5534C123.908 10.0492 123.655 9.29289 123.655 8.32651C123.655 7.36012 123.992 6.51978 124.664 5.84751C125.336 5.17525 126.26 4.83911 127.437 4.83911C129.622 4.83911 130.924 5.72146 131.513 7.44415Z" fill="#4F4F4F"/>
<path d="M140.168 5.00714V7.19201H137.563V16.0996H135.042V7.23403H132.437V5.04916H140.168V5.00714Z" fill="#4F4F4F"/>
<path fill-rule="evenodd" clip-rule="evenodd" d="M13.7815 20.7214H3.0252C1.42856 20.7214 0.126038 19.4189 0.126038 17.8223V12.4441C1.80671 13.8307 3.90755 14.671 6.26049 14.671C6.34452 14.671 6.47057 14.671 6.55461 14.671H13.7815V20.7214ZM20.2941 14.713V17.8223C20.2941 19.4189 18.9916 20.7214 17.3949 20.7214H16.7647V14.713H20.2941ZM15.1681 0.721436H17.3529C18.9496 0.721436 20.2521 2.02396 20.2521 3.6206V11.6038H13.2353C14.916 9.79707 15.9664 7.36009 15.9664 4.629C15.9664 3.24244 15.6723 1.93992 15.1681 0.721436ZM3.0252 0.721436H11.0924C11.9748 1.81387 12.479 3.20043 12.479 4.71303C12.479 8.24244 9.66385 11.0996 6.21847 11.0996C3.23528 11.0996 0.75629 8.99875 0.126038 6.1416V3.6206C0.126038 3.36849 0.168054 3.11639 0.210071 2.90631C0.252088 2.82228 0.294105 2.73824 0.294105 2.61219C0.714273 1.51975 1.80671 0.721436 3.0252 0.721436Z" fill="#D40000"/>
</g>
<defs>
<clipPath id="clip0">
<rect width="140.294" height="20" fill="white" transform="translate(0 0.721436)"/>
</clipPath>
</defs>
</svg>
