<?xml version="1.0" ?><!DOCTYPE svg  PUBLIC '-//W3C//DTD SVG 1.1//EN'  'http://www.w3.org/Graphics/SVG/1.1/DTD/svg11.dtd'><svg enable-background="new 0 0 64 64" height="64px" id="Layer_1" version="1.1" viewBox="0 0 64 64" width="64px" xml:space="preserve" xmlns="http://www.w3.org/2000/svg" xmlns:xlink="http://www.w3.org/1999/xlink"><g id="currency_exchange"><g><g><g><g><g><rect fill="#FF9D7E" height="22" width="44" x="14" y="30"/></g></g></g></g><g><g><g><g><rect fill="#FFB9A3" height="22" width="13" x="14" y="30"/></g></g></g></g><g><g><g><g><g><path d="M41,45.512C40.287,45.837,39.501,46,38.647,46c-1.29,0-2.32-0.393-3.089-1.176         c-0.768-0.785-1.152-1.827-1.152-3.128s0.387-2.343,1.161-3.128c0.773-0.783,1.79-1.176,3.049-1.176         c0.822,0,1.607,0.145,2.353,0.433l-0.324,1.015c-0.744-0.256-1.416-0.385-2.014-0.385c-0.902,0-1.615,0.29-2.144,0.873         c-0.527,0.582-0.791,1.372-0.791,2.368c0,0.912,0.273,1.68,0.818,2.301c0.546,0.622,1.256,0.934,2.133,0.934         c0.692,0,1.405-0.135,2.14-0.402L41,45.512z" fill="#FFFFFF"/></g></g><g><polygon fill="#FFFFFF" points="38.5,43.306 33,43.306 33,42.306 39,42.306       "/></g><g><polygon fill="#FFFFFF" points="39,41.306 33,41.306 33,40.306 39.5,40.306       "/></g></g></g></g><g><rect fill="#FFB9A3" height="22" width="6" x="52" y="30"/></g><g><path d="M38,32c-4.97,0-9,4.03-9,9s4.03,9,9,9s9-4.03,9-9S42.97,32,38,32z M38,49c-4.417,0-8-3.583-8-8     s3.583-8,8-8s8,3.583,8,8S42.417,49,38,49z" fill="#FFFFFF"/></g><g><g><rect fill="#FF9D7E" height="1" width="1" x="53" y="37"/></g><g><rect fill="#FF9D7E" height="1" width="1" x="54" y="34"/></g><g><rect fill="#FF9D7E" height="1" width="1" x="56" y="38"/></g><g><rect fill="#FF9D7E" height="1" width="1" x="56" y="34"/></g><g><rect fill="#FF9D7E" height="1" width="1" x="54" y="38"/></g><g><rect fill="#FF9D7E" height="1" width="1" x="55" y="37"/></g><g><rect fill="#FF9D7E" height="1" width="1" x="55" y="35"/></g><g><rect fill="#FF9D7E" height="1" width="1" x="54" y="36"/></g><g><rect fill="#FF9D7E" height="1" width="1" x="53" y="35"/></g><g><rect fill="#FF9D7E" height="1" width="1" x="53" y="41"/></g><g><rect fill="#FF9D7E" height="1" width="1" x="56" y="40"/></g><g><rect fill="#FF9D7E" height="1" width="1" x="55" y="41"/></g><g><rect fill="#FF9D7E" height="1" width="1" x="55" y="39"/></g><g><rect fill="#FF9D7E" height="1" width="1" x="54" y="40"/></g><g><rect fill="#FF9D7E" height="1" width="1" x="54" y="50"/></g><g><rect fill="#FF9D7E" height="1" width="1" x="56" y="50"/></g><g><rect fill="#FF9D7E" height="1" width="1" x="55" y="51"/></g><g><rect fill="#FF9D7E" height="1" width="1" x="53" y="49"/></g><g><rect fill="#FF9D7E" height="1" width="1" x="54" y="46"/></g><g><rect fill="#FF9D7E" height="1" width="1" x="56" y="46"/></g><g><rect fill="#FF9D7E" height="1" width="1" x="55" y="49"/></g><g><rect fill="#FF9D7E" height="1" width="1" x="55" y="47"/></g><g><rect fill="#FF9D7E" height="1" width="1" x="54" y="48"/></g><g><rect fill="#FF9D7E" height="1" width="1" x="53" y="47"/></g><g><rect fill="#FF9D7E" height="1" width="1" x="54" y="42"/></g><g><rect fill="#FF9D7E" height="1" width="1" x="56" y="44"/></g><g><rect fill="#FF9D7E" height="1" width="1" x="55" y="45"/></g><g><rect fill="#FF9D7E" height="1" width="1" x="55" y="43"/></g><g><rect fill="#FF9D7E" height="1" width="1" x="54" y="44"/></g><g><rect fill="#FF9D7E" height="1" width="1" x="53" y="43"/></g><g><rect fill="#FF9D7E" height="1" width="1" x="54" y="30"/></g><g><rect fill="#FF9D7E" height="1" width="1" x="56" y="32"/></g><g><rect fill="#FF9D7E" height="1" width="1" x="55" y="33"/></g><g><rect fill="#FF9D7E" height="1" width="1" x="55" y="31"/></g><g><rect fill="#FF9D7E" height="1" width="1" x="54" y="32"/></g><g><rect fill="#FF9D7E" height="1" width="1" x="53" y="31"/></g></g></g><g><g><g><g opacity="0.2"><g><rect fill="#37474F" height="6" width="38" x="14" y="30"/></g></g><g><rect fill="#69F0AE" height="22" width="44" x="6" y="12"/></g><g><g><path d="M14.473,30c-0.231-2.083-1.891-3.741-3.973-3.973v-7.055c2.082-0.231,3.741-1.89,3.973-3.973h27.055        c0.231,2.083,1.891,3.741,3.973,3.973v7.055c-2.082,0.231-3.741,1.89-3.973,3.973H14.473z" fill="#B9F6CA"/></g><g><path d="M41.101,16c0.398,1.956,1.943,3.501,3.899,3.899v6.201c-1.956,0.398-3.501,1.943-3.899,3.899H14.899        c-0.398-1.956-1.943-3.501-3.899-3.899v-6.201c1.956-0.398,3.501-1.943,3.899-3.899H41.101L41.101,16z M42,15H14        c0,2.21-1.791,4-4,4v8c2.209,0,4,1.79,4,4h28c0-2.21,1.791-4,4-4v-8C43.791,19,42,17.21,42,15L42,15z" fill="#00C853"/></g></g></g><g><g><path d="M28,20c0.719,0,1,0.521,1,1h2c0-0.814-0.674-1.619-2-1.894V18h-2v1.092c-1.326,0.24-2,1.009-2,2.408       c0,1.313,1.031,2.5,3,2.5c0.577,0,1,0.438,1,1c0,0.595-0.334,1-1,1s-1-0.367-1-1h-2c0,1.245,0.684,1.78,2,1.94V28h2v-1.075       c1.326-0.2,2.025-0.874,2-2.425c0-1.375-1-2.499-3-2.499c-0.563,0-1-0.313-1-1.001C27,20.482,27.281,20,28,20z" fill="#00C853"/></g></g></g><g><path d="M39,21.5c0.828,0,1.5,0.672,1.5,1.5s-0.672,1.5-1.5,1.5s-1.5-0.672-1.5-1.5S38.172,21.5,39,21.5L39,21.5z      M39,20.5c-1.379,0-2.5,1.121-2.5,2.5s1.121,2.5,2.5,2.5s2.5-1.121,2.5-2.5S40.379,20.5,39,20.5L39,20.5z" fill="#00C853"/></g><g><path d="M17,21.5c0.828,0,1.5,0.672,1.5,1.5s-0.672,1.5-1.5,1.5s-1.5-0.672-1.5-1.5S16.172,21.5,17,21.5L17,21.5z      M17,20.5c-1.379,0-2.5,1.121-2.5,2.5s1.121,2.5,2.5,2.5s2.5-1.121,2.5-2.5S18.379,20.5,17,20.5L17,20.5z" fill="#00C853"/></g></g><path d="M8.602,37.411L7.92,38.144L10.992,41H7.5C5.57,41,4,39.43,4,37.5V23H3v14.5C3,39.981,5.019,42,7.5,42h3.494   L7.92,44.857l0.682,0.732L13,41.501L8.602,37.411z" fill="#607D8B"/><path d="M56.5,22h-3.494l3.074-2.857l-0.682-0.732L51,22.499l4.398,4.09l0.682-0.732L53.008,23H56.5   c1.93,0,3.5,1.57,3.5,3.5V42h1V26.5C61,24.019,58.981,22,56.5,22z" fill="#607D8B"/></g></svg>