<?xml version="1.0" encoding="utf-8"?><svg version="1.1" id="Layer_1" xmlns="http://www.w3.org/2000/svg" xmlns:xlink="http://www.w3.org/1999/xlink" x="0px" y="0px" viewBox="0 0 122.88 112.92" style="enable-background:new 0 0 122.88 112.92" xml:space="preserve"><style type="text/css"><![CDATA[
	.st0{fill-rule:evenodd;clip-rule:evenodd;}
]]></style><g><path class="st0" d="M61.96,21.7c4.92,0,9.63,0.91,13.97,2.56c-0.16,0.15-0.32,0.31-0.48,0.46l-0.02,0.02 c-0.49,0.49-0.96,1.01-1.41,1.55c-0.42-0.16-0.85-0.31-1.27-0.45l0,0l-4.83,1.41v-1.28l-0.85,0l-0.02,1.19l-1.89,0.52l-0.24,0.89 l-2.54-2.09l3.42,0.35c-0.59-0.8-4.19-2.13-5.54-2.13h-1.28c-1.38,0-5.71,3.65-7.68,4.69l0.46,2.23l2.48-0.51l0.39,1.83l-1.61-1 c-0.01,0.01-0.43,0.8-0.43,0.85c0,0.98,0.14,0.5,0.26,1.39l-5.68,2.62c-0.17-0.5-0.35-0.98-0.55-1.46l-0.01,0 c-1.23-2.95-2.99-5.58-5.15-7.74l-0.01,0.01l-0.07-0.07C47.35,23.84,54.41,21.7,61.96,21.7L61.96,21.7L61.96,21.7z M61.45,78.18 c4.8,0,9.14,1.94,12.28,5.09c3.14,3.14,5.09,7.48,5.09,12.28c0,4.79-1.94,9.14-5.09,12.28c-3.14,3.14-7.48,5.09-12.28,5.09 c-4.79,0-9.14-1.94-12.28-5.09c-3.14-3.14-5.09-7.48-5.09-12.28c0-4.8,1.94-9.14,5.09-12.28C52.32,80.13,56.66,78.18,61.45,78.18 L61.45,78.18z M24.58,27.09c4.8,0,9.14,1.94,12.28,5.09c3.14,3.14,5.09,7.48,5.09,12.28c0,4.79-1.94,9.14-5.09,12.28 c-3.14,3.14-7.48,5.09-12.28,5.09c-4.79,0-9.14-1.95-12.28-5.09c-3.14-3.14-5.09-7.48-5.09-12.28s1.94-9.14,5.09-12.28 C15.45,29.03,19.79,27.09,24.58,27.09L24.58,27.09z M31.23,39.91l-4.29,0.68c-0.22-0.54-0.41-0.92-0.58-1.13 c-0.17-0.21-0.46-0.42-0.86-0.63v3.33c2.33,0.62,3.89,1.28,4.67,1.97c1.03,0.93,1.55,2.11,1.55,3.54c0,0.83-0.19,1.6-0.56,2.3 c-0.37,0.7-0.85,1.28-1.43,1.75c-0.58,0.47-1.19,0.81-1.85,1.02c-0.65,0.21-1.45,0.33-2.39,0.37v1.5h-1.68v-1.5 c-1.13-0.1-2.04-0.28-2.75-0.54c-0.7-0.26-1.31-0.63-1.82-1.1c-0.51-0.46-0.9-0.97-1.18-1.51s-0.48-1.19-0.62-1.96l4.65-0.54 c0.14,0.76,0.33,1.3,0.56,1.64c0.23,0.33,0.62,0.63,1.16,0.89v-4.07c-1.56-0.43-2.66-0.8-3.31-1.12c-0.65-0.31-1.21-0.82-1.69-1.52 c-0.48-0.7-0.72-1.54-0.72-2.54c0-1.37,0.48-2.51,1.44-3.43c0.96-0.92,2.38-1.43,4.27-1.53V34.3h1.68v1.49 c1.72,0.11,3.04,0.51,3.95,1.22C30.35,37.72,30.95,38.68,31.23,39.91L31.23,39.91L31.23,39.91z M23.82,38.77 c-0.5,0.16-0.84,0.36-1.03,0.6c-0.19,0.24-0.29,0.52-0.29,0.84c0,0.33,0.1,0.63,0.29,0.88c0.2,0.25,0.54,0.46,1.03,0.63V38.77 L23.82,38.77L23.82,38.77z M25.49,50.12c0.65-0.15,1.13-0.39,1.43-0.72c0.3-0.33,0.46-0.71,0.46-1.13c0-0.36-0.13-0.7-0.39-1 c-0.26-0.3-0.76-0.59-1.5-0.85V50.12L25.49,50.12L25.49,50.12z M92.29,24.22c4.8,0,9.14,1.94,12.28,5.09 c3.14,3.14,5.09,7.48,5.09,12.28c0,4.79-1.94,9.14-5.09,12.28c-3.14,3.14-7.48,5.09-12.28,5.09c-4.79,0-9.14-1.94-12.28-5.09 c-3.14-3.14-5.09-7.48-5.09-12.28c0-4.8,1.94-9.14,5.09-12.28C83.15,26.16,87.49,24.22,92.29,24.22L92.29,24.22z M91.6,39.79h3.59 v2.83h-3.17c-0.04,0.67-0.16,1.27-0.37,1.8c-0.17,0.41-0.44,0.83-0.83,1.27c0.44-0.1,0.82-0.14,1.13-0.14 c0.4,0,0.93,0.08,1.57,0.23c0.88,0.2,1.59,0.3,2.12,0.3c0.43,0,0.81-0.04,1.13-0.11c0.32-0.07,0.74-0.23,1.26-0.46l1.61,3.53 c-0.78,0.39-1.46,0.66-2.06,0.81c-0.59,0.15-1.22,0.22-1.9,0.22c-0.74,0-1.59-0.13-2.54-0.39c-1.25-0.34-2.03-0.54-2.33-0.6 c-0.3-0.05-0.62-0.08-0.97-0.08c-1.02,0-2.14,0.35-3.36,1.07l-1.53-3.36c1.66-1.19,2.49-2.37,2.49-3.56c0-0.07-0.01-0.24-0.03-0.53 h-2.47v-2.83h1.77c-0.3-1.04-0.47-1.64-0.51-1.81c-0.05-0.25-0.07-0.56-0.07-0.93c0-0.98,0.26-1.87,0.79-2.65 c0.52-0.78,1.21-1.35,2.06-1.7c0.85-0.35,2-0.53,3.45-0.53c1.35,0,2.43,0.15,3.22,0.46c0.79,0.3,1.46,0.81,2,1.51 c0.55,0.71,0.92,1.56,1.13,2.56l-4.52,0.7c-0.22-0.84-0.49-1.39-0.78-1.67c-0.29-0.27-0.63-0.41-1-0.41c-0.46,0-0.82,0.15-1.1,0.45 c-0.28,0.3-0.42,0.72-0.42,1.27c0,0.29,0.03,0.57,0.08,0.84C91.08,38.15,91.28,38.79,91.6,39.79L91.6,39.79L91.6,39.79z M64.3,98.29h-3.88c0.04,1.09,0.34,1.9,0.89,2.42c0.55,0.52,1.46,0.78,2.73,0.78c0.82,0,1.55-0.12,2.19-0.37l0.54,3.34 c-1.1,0.25-2.19,0.37-3.27,0.37c-2.24,0-4.02-0.58-5.35-1.74c-1.33-1.16-2.03-2.77-2.09-4.81h-2.05V96.3h2.05v-1.52h-2.05V92.8 h2.09c0.16-2.05,0.93-3.66,2.31-4.81c1.39-1.15,3.21-1.73,5.48-1.73c0.88,0,1.84,0.13,2.88,0.39l-0.54,3.36 c-0.65-0.26-1.34-0.39-2.08-0.39c-1.15,0-2.02,0.26-2.62,0.78c-0.61,0.52-0.96,1.32-1.07,2.41h3.84v1.98h-3.88v1.51h3.88V98.29 L64.3,98.29L64.3,98.29z M117.4,74.41l1.93,3.13c0.6,0.97,1.86,1.27,2.83,0.67c3.04-1.88-4.53-11.68-5.84-11.79 c-0.63-0.05-1.22,0.19-1.64,0.61l-6.7,6.81c-0.8,0.81-0.78,2.11,0.03,2.91s2.11,0.78,2.91-0.03l2.29-2.32 c-1.17,5.5-3.25,10.59-5.96,15.05c-3.91,6.43-9.12,11.52-14.81,14.62c-1,0.54-1.37,1.79-0.83,2.79c0.54,1,1.79,1.37,2.79,0.83 c6.33-3.42,12.09-9.04,16.37-16.09C113.85,86.53,116.17,80.7,117.4,74.41L117.4,74.41L117.4,74.41L117.4,74.41z M77.5,6.2 l-1.75-3.24c-0.54-1-0.17-2.24,0.83-2.79c3.15-1.7,7.85,9.76,7.29,10.96c-0.27,0.58-0.77,0.96-1.35,1.11l-9.25,2.4 c-1.1,0.28-2.22-0.38-2.5-1.48c-0.28-1.1,0.38-2.22,1.48-2.5l3.16-0.82C70.07,8.11,64.62,7.36,59.4,7.48 C51.88,7.65,44.86,9.61,39.33,13c-0.97,0.6-2.24,0.29-2.83-0.68c-0.6-0.97-0.29-2.24,0.68-2.83c6.13-3.77,13.88-5.95,22.12-6.13 C65.23,3.22,71.44,4.12,77.5,6.2L77.5,6.2L77.5,6.2L77.5,6.2z M5.48,74.41l-1.93,3.13c-0.6,0.97-1.86,1.27-2.83,0.67 c-3.04-1.88,4.53-11.68,5.84-11.79c0.63-0.05,1.22,0.19,1.64,0.61l6.7,6.81c0.8,0.81,0.78,2.11-0.03,2.91 c-0.81,0.8-2.11,0.78-2.91-0.03L9.68,74.4c1.17,5.5,3.25,10.59,5.96,15.05c3.91,6.43,9.11,11.52,14.81,14.62 c1,0.54,1.37,1.79,0.83,2.79c-0.54,1-1.79,1.37-2.79,0.83c-6.33-3.42-12.09-9.04-16.37-16.09C9.03,86.53,6.71,80.7,5.48,74.41 L5.48,74.41L5.48,74.41L5.48,74.41z M101.11,63.72c-0.83,11.87-6.94,22.28-16,28.91c-0.27-2.16-0.83-4.24-1.64-6.2l-0.01,0 c-1.23-2.95-2.99-5.58-5.16-7.74l-0.01,0.01c-2.19-2.19-4.81-3.96-7.73-5.17l0-0.01c-0.92-0.38-1.87-0.71-2.84-0.97 c1.82-2.71,5.63-6.86,5.71-10.36c-1.75,0.15-0.95,0.43-2.56,0.43c-0.76,0-0.7-0.64-0.85-1.28c1.67-0.39,3.85-1.43,5.38-2.94 l0.01,0.01l0.02,0.03c2.19,2.19,4.82,3.95,7.74,5.16c2.83,1.17,5.91,1.82,9.09,1.82C95.38,65.42,98.36,64.82,101.11,63.72 L101.11,63.72z M37.89,91.93c-7.39-5.75-12.68-14.1-14.48-23.67c0.39,0.02,0.79,0.03,1.18,0.03c3.21,0,6.29-0.65,9.12-1.82l0-0.01 c2.74-1.14,5.19-2.74,7.26-4.69c0.77,1.59,2.72,4.67,3.94,4.67h1.7c1.86,0,1.55-0.85,3.41-0.85h0.43c1.18,0,1.02,0.33,1.28,1.28 h1.71v3.41c0,0.29,0.61,1.27,1.18,2.43c-0.77,0.23-1.53,0.5-2.27,0.81l0,0.01c-2.91,1.21-5.53,2.97-7.71,5.15l-0.02,0.03 c-2.18,2.19-3.95,4.8-5.15,7.71l-0.01,0C38.71,88.18,38.18,90.02,37.89,91.93L37.89,91.93z M48.39,45.78 c0.9-0.37,1.03-1.06,2.05-1.06h3.83v2.98l4.22,1.8l0.4-1.82c1.91,0.45,2.41,1.3,4.76,1.3h0.85c1.62,0,1.7-2.15,1.7-3.83l-3.41,0.34 l-1.48-3.23l-1.48,0.39c0.27,1.16,0.41,0.68,0.41,1.65c0,0.57-0.47,0.64-0.85,0.85l-1.48-3.75l-3.17-2.27l-0.42,0.41l2.7,2.84 c-0.36,1.02-0.4,3.97-1.89,1.9l1.39-0.67l-3.47-3.64l-2.08,0.81l-2.05,1.97c-0.09,0.69-0.23,1.23-0.48,1.62v0.07 C48.43,44.9,48.42,45.34,48.39,45.78L48.39,45.78z M48.09,40.46h0.22l-0.39-0.9C47.98,39.86,48.04,40.16,48.09,40.46L48.09,40.46z M30.23,81.22c-2.31-3.51-4.04-7.44-5.06-11.64l6.91,3.33l0.04,2.06c0,0.76-1.29,2.37-1.7,2.98L30.23,81.22L30.23,81.22 L30.23,81.22z"/></g></svg>