<svg width="1591" height="867" xmlns="http://www.w3.org/2000/svg">
 <!-- Created with Method Draw - http://github.com/duopixel/Method-Draw/ -->
 <g>
  <title>background</title>
  <rect fill="#fff" id="canvas_background" height="869" width="1593" y="-1" x="-1"/>
  <g display="none" overflow="visible" y="0" x="0" height="100%" width="100%" id="canvasGrid">
   <rect fill="url(#gridpattern)" stroke-width="0" y="0" x="0" height="100%" width="100%"/>
  </g>
 </g>
 <g>
  <title>Layer 1</title>
  <path id="svg_6" d="m1663.83437,909.61168l-1704.94553,-0.72172l1.11111,-486.66724l648.88966,30.00004l105.55568,-41.11116l126.66682,1.11111l122.22236,-34.44449l126.66682,14.44447c0.49906,0.72171 126.05477,-64.83392 126.05477,-64.83392c0,0 128.88904,4.44445 128.38998,3.72273c0.49906,0.72172 118.27698,28.49953 118.27698,28.49953c0,0 173.33353,-108.88902 172.83447,-109.61073" stroke-opacity="null" stroke-width="1.5" stroke="#000" fill="#ffff00"/>
  <ellipse stroke="#000" ry="4.523822" rx="4.523822" id="svg_9" cy="453.023736" cx="609.150561" stroke-opacity="null" stroke-width="0" fill="#ff0000"/>
  <ellipse stroke="#000" ry="4.523822" rx="4.523822" id="svg_10" cy="411.595173" cx="715.341014" stroke-opacity="null" stroke-width="0" fill="#ff0000"/>
  <ellipse stroke="#000" ry="4.523822" rx="4.523822" id="svg_11" cy="412.071364" cx="841.05527" stroke-opacity="null" stroke-width="0" fill="#ff0000"/>
  <ellipse stroke="#000" ry="4.523822" rx="4.523822" id="svg_12" cy="378.261847" cx="964.388575" stroke-opacity="null" stroke-width="0" fill="#ff0000"/>
  <ellipse stroke="#000" ry="4.523822" rx="4.523822" id="svg_13" cy="391.595177" cx="1090.102832" stroke-opacity="null" stroke-width="0" fill="#ff0000"/>
  <ellipse stroke="#000" ry="4.523822" rx="4.523822" id="svg_14" cy="327.706436" cx="1216.769206" stroke-opacity="null" stroke-width="0" fill="#ff0000"/>
  <ellipse stroke="#000" ry="4.523822" rx="4.523822" id="svg_15" cy="332.150871" cx="1346.213343" stroke-opacity="null" stroke-width="0" fill="#ff0000"/>
  <ellipse stroke="#000" ry="4.523822" rx="4.523822" id="svg_16" cy="358.26192" cx="1463.43529" stroke-opacity="null" stroke-width="0" fill="#ff0000"/>
  <ellipse stroke="#000" ry="4.523822" rx="4.523822" id="svg_7" cy="278.817661" cx="1589.546107" stroke-opacity="null" stroke-width="0" fill="#ff0000"/>
  <path id="svg_17" d="m1644.875212,897.875106l-1684.875221,-0.374889l1.25,-446.250108c-1.25,0.372765 496.124925,24.124892 496.124925,24.124892c0,0 255.000064,-106.250026 253.875257,-106.624912c1.124807,0.374885 129.874839,-2.125116 128.750031,-2.500001c1.124808,0.374885 112.374836,-32.125123 111.250027,-32.500008c1.124809,0.374885 144.874844,21.62489 144.874844,21.62489c0,0 128.750032,-73.750018 127.625222,-74.124903c1.124811,0.374884 133.624844,9.124887 133.624844,9.124887c0,0 108.750027,35.000009 108.750027,35.000009c0,0 178.750045,-125.000031 177.625231,-125.374915" opacity="0.5" stroke-opacity="null" stroke-width="0" stroke="#000" fill="#ff0000"/>
 </g>
</svg>